<?xml version="1.0" standalone="no"?>
<!DOCTYPE svg PUBLIC "-//W3C//DTD SVG 20010904//EN"
 "http://www.w3.org/TR/2001/REC-SVG-20010904/DTD/svg10.dtd">
<svg version="1.0" xmlns="http://www.w3.org/2000/svg"
 width="616.000000pt" height="361.000000pt" viewBox="0 0 616.000000 361.000000"
 preserveAspectRatio="xMidYMid meet">

<g transform="translate(0.000000,361.000000) scale(0.100000,-0.100000)"
fill="#000000" stroke="none">
<path d="M0 2975 c0 -626 0 -635 20 -635 13 0 22 -9 26 -25 7 -27 -10 -55 -32
-55 -12 0 -14 -177 -14 -1130 l0 -1130 323 0 324 0 0 31 c0 17 6 34 13 39 7 4
14 20 16 35 5 45 11 52 48 59 52 10 86 -15 86 -63 -1 -44 -16 -65 -52 -75 -16
-3 -28 -11 -28 -16 0 -14 927 -14 935 0 3 6 11 10 16 10 6 0 7 -5 4 -10 -4 -7
118 -10 358 -10 360 0 365 0 360 20 -4 14 0 20 11 20 9 0 16 -8 16 -20 0 -20
8 -20 1050 -20 l1050 1 0 27 c0 15 9 38 19 51 35 46 121 6 121 -56 0 -22 3
-23 100 -23 58 0 100 4 100 10 0 5 9 14 20 20 16 8 23 7 37 -10 17 -20 27 -20
625 -20 l608 0 0 818 c0 449 -4 811 -8 804 -7 -10 -19 -9 -60 4 -29 10 -52 20
-52 24 0 11 38 20 82 20 l38 0 0 285 -1 284 -32 -5 c-52 -9 -55 -11 -60 -41
-3 -20 -4 -16 -6 15 -1 34 -5 42 -20 42 -10 0 -21 9 -24 20 -7 27 -37 25 -97
-5 -55 -28 -67 -42 -51 -58 19 -19 12 -25 -33 -23 -52 2 -59 6 -58 42 0 19
-14 41 -45 71 -24 25 -42 47 -39 50 3 3 13 -3 23 -13 33 -36 70 -65 89 -69 10
-2 28 -7 39 -10 23 -6 119 50 110 64 -2 5 4 20 14 32 17 21 22 22 41 11 15 -9
26 -10 40 -2 25 13 18 56 -14 84 -20 18 -20 19 -1 12 41 -16 55 -18 55 -7 0
17 43 31 58 19 9 -8 12 8 12 74 0 72 -3 86 -20 98 -11 8 -20 25 -20 37 0 13 9
28 20 35 20 13 20 24 20 455 l0 443 -155 0 c-138 0 -155 -2 -155 -17 0 -15 -2
-15 -19 1 -12 11 -31 16 -53 14 l-33 -3 39 -23 c45 -26 39 -38 -27 -61 -33
-11 -40 -10 -67 9 -35 25 -39 40 -10 40 13 0 20 7 20 20 0 19 -7 20 -180 20
-178 0 -179 0 -204 -25 -21 -21 -30 -24 -46 -15 -11 6 -17 16 -14 25 5 13 -17
15 -161 15 -154 0 -166 -1 -161 -17 3 -10 8 -40 12 -66 4 -28 16 -60 30 -77
13 -15 24 -32 24 -37 0 -6 9 -18 20 -28 20 -18 25 -54 11 -89 -7 -18 -10 -17
-41 12 -39 38 -40 38 -33 12 8 -31 -34 -45 -99 -32 -29 5 -55 8 -57 6 -7 -7
22 -35 81 -76 65 -46 72 -64 9 -24 -55 35 -69 33 -32 -5 58 -58 31 -47 -36 15
-18 16 -36 26 -40 23 -7 -8 5 -34 100 -212 102 -190 111 -205 122 -205 17 0
55 -44 55 -63 0 -10 7 -20 15 -23 20 -8 19 -24 -1 -24 -9 0 -22 -7 -28 -15
-17 -22 -86 -48 -86 -33 0 9 -4 8 -11 -2 -8 -11 -12 -12 -16 -2 -10 26 -26 17
-248 -136 -49 -34 -103 -72 -119 -85 l-29 -23 18 -35 c10 -19 28 -47 40 -64
34 -45 58 -85 52 -85 -3 0 -31 38 -63 85 -54 80 -93 111 -81 65 5 -21 -8 -29
-15 -8 -4 11 -82 -36 -116 -69 -7 -7 -26 -20 -42 -30 -17 -9 -30 -23 -30 -31
0 -7 -5 -10 -10 -7 -6 3 -46 -19 -90 -50 -73 -51 -80 -59 -80 -90 0 -18 -9
-43 -19 -56 -15 -19 -27 -23 -66 -21 -37 1 -46 -1 -42 -13 4 -8 1 -12 -6 -9
-12 4 -133 -85 -149 -109 -4 -6 -1 -18 5 -27 10 -13 10 -13 -5 -2 -9 8 -23 10
-30 6 -19 -11 -103 -80 -188 -154 -41 -36 -93 -79 -115 -95 -22 -16 -65 -52
-95 -81 -30 -28 -65 -56 -76 -62 -25 -13 -201 -159 -280 -231 -30 -28 -59 -51
-63 -51 -4 0 -27 -19 -49 -42 -36 -36 -42 -48 -42 -84 0 -33 5 -47 22 -58 26
-19 17 -22 -12 -4 -31 20 -37 0 -12 -43 28 -48 22 -52 -8 -4 -18 29 -28 35
-56 35 -32 0 -44 8 -82 54 -6 7 -5 18 2 31 27 48 38 55 93 55 50 0 57 3 88 38
19 20 35 41 35 45 0 5 14 23 32 40 44 45 308 375 308 387 0 5 6 13 14 17 8 4
58 62 111 128 53 66 111 137 129 159 70 87 77 101 67 129 -8 20 -7 30 5 42 11
10 14 24 10 42 -6 23 -6 24 9 9 15 -15 19 -15 46 1 l30 18 -22 18 c-21 17 -22
18 -3 32 30 23 56 28 65 14 13 -21 43 2 47 35 2 15 10 26 18 26 11 0 14 6 9
23 -5 17 -4 19 5 7 9 -13 16 -9 46 25 63 71 93 116 87 131 -3 8 3 17 13 20 38
14 54 37 54 76 0 37 26 78 50 78 12 0 52 78 45 89 -2 5 2 15 11 22 16 13 94
168 94 186 0 9 -143 69 -200 84 -14 4 -119 42 -235 84 -320 117 -301 112 -328
87 -29 -28 -77 -28 -105 -2 -50 47 -5 139 61 126 35 -7 67 -38 67 -66 0 -13
16 -24 58 -38 31 -11 95 -35 142 -52 92 -34 286 -102 415 -146 44 -15 88 -31
97 -35 39 -20 48 -9 133 168 47 97 85 182 85 188 0 7 -9 15 -20 18 -27 7 -36
51 -16 82 17 25 50 33 61 15 11 -19 35 -10 41 15 3 13 2 37 -4 52 -5 16 -6 38
-1 51 l8 22 -944 0 c-520 0 -944 -3 -943 -7 2 -5 -1 -8 -7 -8 -5 0 -9 3 -7 8
1 4 -585 7 -1303 7 l-1305 0 0 -635z m2350 580 c7 -9 9 -26 5 -45 -4 -17 -3
-36 3 -43 11 -15 23 -47 17 -47 -2 0 -11 14 -20 30 -10 19 -23 30 -37 30 -29
0 -58 28 -51 48 15 43 58 57 83 27z m3573 -48 c9 -4 17 -17 17 -29 0 -13 7
-36 15 -52 15 -28 20 -56 10 -56 -3 0 -13 8 -24 19 -10 10 -27 23 -37 29 -13
7 -18 20 -16 41 1 17 -4 45 -13 61 -21 41 -18 49 8 19 12 -14 30 -29 40 -32z
m-3809 -24 c9 -22 -2 -33 -30 -33 -19 0 -24 5 -24 24 0 37 41 43 54 9z m-130
-62 c11 -17 -20 -44 -42 -37 -18 6 -20 11 -12 27 11 19 44 26 54 10z m3871
-11 c3 -5 1 -10 -4 -10 -6 0 -11 5 -11 10 0 6 2 10 4 10 3 0 8 -4 11 -10z
m-4451 -26 c27 -26 18 -56 -21 -68 -22 -7 -63 21 -63 43 0 16 31 41 50 41 10
0 26 -7 34 -16z m423 1 c25 -17 21 -48 -9 -69 -25 -18 -53 -10 -66 19 -9 18
-7 27 9 44 23 25 37 26 66 6z m-1457 -14 c0 -17 -18 -21 -24 -6 -3 9 0 15 9
15 8 0 15 -4 15 -9z m5579 -24 c8 -11 21 -17 32 -14 21 6 93 -13 109 -29 16
-16 -35 -114 -60 -114 -13 0 -20 -7 -20 -20 0 -25 -25 -26 -39 -2 -9 16 -11
16 -24 -2 -15 -20 -37 -14 -37 10 0 9 -11 14 -30 14 -17 0 -45 7 -62 16 -30
15 -31 17 -13 30 10 7 22 15 28 17 15 5 -1 27 -25 36 -18 7 -15 11 28 36 27
16 55 35 62 42 15 15 30 9 51 -20z m-599 -37 c0 -5 -4 -10 -10 -10 -5 0 -10 5
-10 10 0 6 5 10 10 10 6 0 10 -4 10 -10z m-4322 -19 c10 -6 10 -10 -3 -21 -18
-15 -42 0 -31 19 8 13 16 14 34 2z m922 -41 c0 -27 -19 -35 -38 -17 -12 13
-13 19 -3 31 16 19 41 10 41 -14z m3178 -88 c6 -9 12 -27 12 -40 0 -20 -4 -23
-27 -20 -25 3 -28 7 -31 45 -3 38 -1 42 15 37 10 -4 24 -14 31 -22z m-115 -31
c21 -13 36 -25 33 -28 -5 -6 -82 42 -92 58 -5 8 -2 9 7 3 8 -5 31 -20 52 -33z
m640 33 c11 -11 -5 -34 -24 -34 -21 0 -22 1 -13 24 6 16 25 21 37 10z m-203
-30 c0 -8 -4 -14 -10 -14 -5 0 -10 9 -10 21 0 11 5 17 10 14 6 -3 10 -13 10
-21z m-3883 10 c-3 -4 0 -13 8 -21 8 -8 15 -28 15 -44 0 -23 -5 -30 -27 -35
-31 -8 -57 6 -61 32 -3 23 36 72 57 73 8 1 12 -2 8 -5z m4222 -20 c10 -22 9
-25 -5 -22 -21 4 -39 48 -20 48 7 0 18 -12 25 -26z m-785 -78 c22 -20 45 -36
50 -36 11 0 50 -60 43 -66 -2 -2 -30 18 -61 46 -31 27 -62 50 -67 50 -6 0 -8
4 -5 9 3 4 -11 28 -31 52 l-37 44 35 -32 c19 -17 52 -47 73 -67z m-3124 53 c0
-5 -4 -9 -10 -9 -5 0 -10 7 -10 16 0 8 5 12 10 9 6 -3 10 -10 10 -16z m-1080
-4 c0 -8 -7 -15 -15 -15 -8 0 -15 7 -15 15 0 8 7 15 15 15 8 0 15 -7 15 -15z
m4760 -20 c0 -27 -6 -30 -29 -16 -17 11 -7 41 14 41 9 0 15 -9 15 -25z m-456
-4 c15 -16 51 -31 86 -36 26 -3 83 -41 90 -60 5 -13 19 -29 31 -36 13 -6 32
-20 43 -31 12 -11 35 -27 51 -35 17 -9 32 -19 35 -22 3 -4 18 -15 33 -25 16
-9 26 -20 23 -23 -3 -4 -14 1 -23 9 -10 9 -34 24 -53 33 -19 10 -37 21 -40 24
-3 3 -24 19 -48 35 l-42 29 -19 -22 c-22 -25 -39 -26 -68 -6 -23 16 -34 55
-21 78 6 12 -3 22 -37 44 -72 44 -93 62 -74 63 9 0 24 -9 33 -19z m-2244 -36
c0 -8 -4 -15 -10 -15 -5 0 -10 7 -10 15 0 8 5 15 10 15 6 0 10 -7 10 -15z
m2989 -26 c14 -42 14 -41 -10 -37 -27 4 -44 30 -36 52 10 26 34 18 46 -15z
m-5599 6 c0 -8 -4 -15 -9 -15 -5 0 -11 7 -15 15 -3 9 0 15 9 15 8 0 15 -7 15
-15z m1677 -11 c-9 -9 -28 6 -21 18 4 6 10 6 17 -1 6 -6 8 -13 4 -17z m3797
-6 c14 -40 -2 -47 -30 -13 -30 37 -30 47 -2 43 14 -2 26 -14 32 -30z m-4384 2
c0 -5 -2 -10 -4 -10 -3 0 -8 5 -11 10 -3 6 -1 10 4 10 6 0 11 -4 11 -10z
m4130 -6 c0 -8 -5 -12 -10 -9 -6 4 -8 11 -5 16 9 14 15 11 15 -7z m506 -41
c-10 -10 -19 5 -10 18 6 11 8 11 12 0 2 -7 1 -15 -2 -18z m-3418 -12 c5 -30
-10 -45 -37 -36 -13 4 -21 15 -21 30 0 40 53 46 58 6z m-1408 9 c0 -5 -5 -10
-11 -10 -5 0 -7 5 -4 10 3 6 8 10 11 10 2 0 4 -4 4 -10z m4745 -30 c-3 -5 -10
-10 -16 -10 -5 0 -9 5 -9 10 0 6 7 10 16 10 8 0 12 -4 9 -10z m-4375 -30 c0
-5 -5 -10 -11 -10 -5 0 -7 5 -4 10 3 6 8 10 11 10 2 0 4 -4 4 -10z m2018 -2
c26 -26 7 -78 -29 -78 -28 0 -40 55 -17 78 7 7 17 12 23 12 6 0 16 -5 23 -12z
m2428 -19 c-3 -17 -6 -40 -6 -50 0 -11 -4 -19 -10 -19 -6 0 -8 18 -6 43 3 23
5 45 5 50 1 4 6 7 12 7 8 0 9 -11 5 -31z m-2747 5 c41 -9 39 -26 -5 -47 -28
-14 -39 -15 -50 -6 -17 14 -18 31 -2 47 14 14 15 14 57 6z m-2999 -14 c0 -5
-4 -10 -10 -10 -5 0 -10 5 -10 10 0 6 5 10 10 10 6 0 10 -4 10 -10z m1528 -16
c32 -22 29 -60 -8 -79 -29 -15 -30 -15 -45 16 -15 28 -15 33 0 55 18 28 23 29
53 8z m3500 -9 c41 9 73 -20 74 -65 0 -23 9 -44 27 -63 l26 -28 5 23 c8 33 61
46 95 24 20 -13 24 -22 19 -44 -3 -15 -17 -37 -31 -48 -14 -12 -23 -26 -19
-32 4 -6 -2 -8 -14 -5 -11 3 -20 10 -20 15 0 20 -101 108 -123 108 -37 0 -67
27 -67 62 0 17 -8 41 -17 52 -16 19 -16 19 -1 7 11 -8 28 -10 46 -6z m668 -61
c-5 -13 -10 -14 -18 -6 -6 6 -8 18 -4 28 5 13 10 14 18 6 6 -6 8 -18 4 -28z
m-307 -36 c13 -10 21 -18 17 -18 -16 0 -83 40 -101 60 l-20 22 40 -23 c22 -12
51 -31 64 -41z m-2378 17 c0 -5 -9 -11 -21 -13 -20 -3 -27 8 -13 22 10 9 34 3
34 -9z m-1436 -24 c3 -5 1 -12 -4 -15 -5 -3 -11 1 -15 9 -6 16 9 21 19 6z
m2283 -1 c-12 -8 -15 -19 -11 -44 5 -30 2 -34 -23 -43 -37 -13 -51 -7 -69 27
-13 25 -13 29 1 41 14 11 67 25 104 28 12 0 11 -2 -2 -9z m-2843 -40 c12 -13
15 -27 11 -45 -5 -21 -12 -25 -41 -25 -29 0 -37 5 -45 26 -12 30 -6 42 24 54
30 12 31 12 51 -10z m430 -96 c-28 -77 -35 -107 -29 -137 7 -45 -15 -78 -47
-70 -47 13 -47 75 0 91 25 9 33 23 67 122 21 62 40 108 41 103 2 -6 -12 -55
-32 -109z m1273 102 c30 -2 51 -18 52 -39 0 -4 -14 -14 -32 -21 -30 -13 -33
-12 -60 16 -32 34 -38 64 -10 53 9 -4 32 -8 50 -9z m2798 -42 c36 -28 54 -30
54 -9 0 8 7 15 16 15 13 0 15 -7 11 -29 -6 -28 -2 -33 61 -72 37 -24 80 -50
96 -59 17 -8 32 -21 34 -29 5 -16 -19 -3 -111 60 -28 20 -98 67 -154 104 -57
37 -103 69 -103 71 0 7 63 -27 96 -52z m-3626 36 c0 -5 -4 -10 -10 -10 -5 0
-10 5 -10 10 0 6 5 10 10 10 6 0 10 -4 10 -10z m1243 -41 c20 -28 10 -58 -21
-66 -31 -7 -56 7 -60 36 -7 48 53 70 81 30z m424 6 c12 -8 30 -13 40 -10 11 3
9 1 -4 -6 -13 -7 -23 -17 -23 -22 0 -6 -9 -21 -21 -33 -17 -18 -24 -20 -44
-10 -31 14 -38 44 -19 73 17 27 41 29 71 8z m-1877 -5 c0 -5 -4 -10 -10 -10
-5 0 -10 5 -10 10 0 6 5 10 10 10 6 0 10 -4 10 -10z m-1640 -27 c0 -5 3 -17 6
-29 6 -23 -18 -54 -41 -54 -18 0 -45 27 -45 45 0 21 29 45 56 45 13 0 24 -3
24 -7z m3373 0 c-7 -2 -19 -2 -25 0 -7 3 -2 5 12 5 14 0 19 -2 13 -5z m2097
-12 c5 -11 10 -29 10 -40 0 -17 -6 -21 -30 -21 -27 0 -30 3 -30 33 0 19 3 37
7 40 12 13 32 7 43 -12z m-1890 -22 c0 -24 -23 -21 -28 4 -2 10 3 17 12 17 10
0 16 -9 16 -21z m2085 -16 c-7 -17 -8 -17 -15 2 -9 24 -2 41 12 27 6 -6 7 -19
3 -29z m-296 15 c18 -11 18 -12 -2 -40 -23 -31 -52 -36 -78 -12 -10 9 -23 14
-29 12 -6 -2 16 -32 49 -67 59 -62 66 -71 56 -71 -6 0 -165 158 -165 165 0 3
8 2 17 -3 11 -7 26 -4 47 9 35 22 78 24 105 7z m512 -31 c-8 -8 -11 -5 -11 9
0 27 14 41 18 19 2 -9 -1 -22 -7 -28z m-3381 8 c0 -8 -4 -15 -9 -15 -13 0 -22
16 -14 24 11 11 23 6 23 -9z m-1930 -14 c0 -23 -25 -34 -39 -17 -7 9 -7 16 1
24 18 18 38 14 38 -7z m4577 -38 c-9 -28 -12 -31 -20 -18 -6 11 -4 27 4 46 16
41 30 18 16 -28z m-3227 37 c0 -5 -4 -10 -10 -10 -5 0 -10 5 -10 10 0 6 5 10
10 10 6 0 10 -4 10 -10z m3648 -27 c3 -25 -1 -33 -19 -38 -24 -8 -39 7 -39 41
0 27 9 36 35 32 14 -2 21 -12 23 -35z m-2658 12 c0 -8 -7 -15 -15 -15 -8 0
-15 7 -15 15 0 8 7 15 15 15 8 0 15 -7 15 -15z m70 -39 c6 -8 10 -25 8 -38 -4
-28 -39 -36 -58 -14 -10 13 -9 20 4 41 19 29 29 31 46 11z m230 -1 c7 -9 13
-32 14 -53 1 -30 5 -38 22 -40 22 -3 34 -27 34 -67 0 -14 -10 -23 -35 -31 -19
-6 -35 -7 -35 -3 0 5 -16 9 -35 9 -37 0 -47 15 -17 24 16 6 52 58 52 76 0 4
-13 10 -29 13 -31 6 -40 25 -33 65 5 26 43 30 62 7z m184 -17 c18 -12 -7 -28
-47 -31 -47 -4 -49 16 -4 43 23 14 33 16 36 7 2 -6 9 -15 15 -19z m1277 11
c14 -26 -8 -53 -34 -43 -20 7 -22 35 -5 52 17 17 26 15 39 -9z m-2183 -15 c5
-36 -49 -42 -62 -7 -9 23 3 34 32 31 19 -2 28 -10 30 -24z m-578 -20 c0 -14
-12 -19 -23 -8 -9 9 4 35 14 28 5 -3 9 -12 9 -20z m2874 -20 c8 -22 -4 -44
-24 -44 -23 0 -36 36 -20 55 13 16 36 10 44 -11z m-2100 -36 c6 -13 20 -24 31
-26 32 -6 45 -22 45 -53 0 -23 -6 -32 -26 -40 -40 -14 -65 12 -62 65 2 23 -1
52 -6 66 -10 29 2 21 18 -12z m-854 2 c0 -5 -4 -10 -10 -10 -5 0 -10 5 -10 10
0 6 5 10 10 10 6 0 10 -4 10 -10z m-806 -32 c9 -12 16 -27 16 -34 0 -17 -49
-36 -74 -28 -31 10 -36 24 -20 56 18 35 56 38 78 6z m3794 -61 c-2 -14 -10
-22 -23 -22 -21 0 -31 25 -21 51 9 24 48 -2 44 -29z m-538 -11 c0 -5 -7 -1
-15 10 -8 10 -14 24 -14 29 0 6 6 1 14 -9 8 -11 15 -24 15 -30z m-3364 -1
c-11 -8 -24 -15 -30 -15 -5 0 -1 7 10 15 10 8 24 14 29 14 6 0 1 -6 -9 -14z
m4467 1 c11 -27 -4 -57 -27 -54 -16 2 -22 11 -24 36 -3 28 0 32 21 32 14 0 27
-6 30 -14z m-836 -32 c2 -6 -9 -16 -23 -23 -21 -9 -34 -9 -56 0 -35 14 -36 25
0 37 30 10 74 2 79 -14z m-4211 1 c4 -8 3 -26 0 -40 -5 -20 -13 -25 -36 -25
-37 0 -61 39 -40 65 16 19 69 20 76 0z m2530 -38 c9 3 13 0 10 -8 -6 -16 90
-95 125 -104 18 -4 34 4 63 30 49 44 60 46 18 2 -32 -33 -32 -33 -12 -52 24
-22 27 -70 4 -79 -33 -12 -63 -6 -69 15 -4 11 -13 18 -20 15 -7 -2 -26 -1 -42
4 l-28 8 32 1 c17 1 35 6 39 13 8 13 -93 108 -141 132 -16 9 -25 16 -20 16 6
0 -6 14 -25 31 l-35 31 44 -30 c23 -17 49 -28 57 -25z m1444 9 c0 -5 -7 -1
-15 10 -8 10 -14 24 -14 29 0 6 6 1 14 -9 8 -11 15 -24 15 -30z m-4190 14 c0
-21 -24 -28 -35 -10 -8 14 3 30 21 30 8 0 14 -9 14 -20z m5070 -31 c0 -27 -3
-29 -40 -30 -22 -1 -44 -2 -50 -3 -5 -1 -9 4 -7 9 1 6 10 10 20 9 9 0 17 5 17
12 0 16 40 45 52 38 4 -3 8 -18 8 -35z m-2260 21 c0 -5 -4 -10 -10 -10 -5 0
-10 5 -10 10 0 6 5 10 10 10 6 0 10 -4 10 -10z m-1557 -36 c9 -9 -4 -35 -14
-28 -5 3 -9 12 -9 20 0 14 12 19 23 8z m3095 -64 c6 0 17 -19 23 -42 7 -24 20
-54 29 -68 30 -45 33 -56 6 -25 -14 17 -28 38 -32 48 -3 10 -13 17 -22 15 -20
-4 -28 -67 -13 -97 9 -16 8 -19 -7 -17 -9 2 -18 12 -20 24 -2 12 -21 54 -43
93 -42 78 -43 79 -31 79 4 0 21 -27 37 -60 31 -62 45 -74 45 -40 0 11 -4 20
-10 20 -16 0 -23 49 -10 65 9 11 7 21 -11 47 -21 32 -21 32 13 -4 20 -21 41
-38 46 -38z m875 55 c-1 -5 -8 -14 -17 -20 -18 -11 -42 7 -31 25 8 13 51 9 48
-5z m-4778 -15 c-59 -26 -98 -35 -52 -11 21 11 46 22 55 24 36 10 35 5 -3 -13z
m2131 -27 c-10 -10 -19 5 -10 18 6 11 8 11 12 0 2 -7 1 -15 -2 -18z m1934 -3
c25 -14 -33 -34 -75 -26 -40 8 -43 27 -4 37 24 7 52 3 79 -11z m1051 3 c13
-15 12 -15 -8 -4 -24 12 -29 21 -14 21 5 0 15 -7 22 -17z m-3047 -2 c3 -5 -1
-11 -9 -14 -9 -4 -12 -1 -8 9 6 16 10 17 17 5z m-2243 -21 c28 -15 25 -58 -5
-71 -31 -15 -66 4 -66 34 0 41 31 58 71 37z m5420 0 c10 -6 19 -19 19 -29 0
-10 10 -26 23 -35 22 -16 22 -16 0 -6 -15 7 -29 7 -47 -1 -26 -12 -56 1 -56
24 0 6 -8 19 -17 30 -17 19 -17 19 4 13 12 -4 24 -2 28 4 8 13 21 13 46 0z
m-1483 -41 c3 -22 -2 -27 -25 -32 -39 -7 -44 -1 -26 34 18 36 47 35 51 -2z
m-4108 8 c0 -19 -10 -27 -26 -20 -21 8 -17 33 6 33 11 0 20 -6 20 -13z m1625
-7 c3 -5 -1 -10 -10 -10 -9 0 -13 5 -10 10 3 6 8 10 10 10 2 0 7 -4 10 -10z
m3630 -20 c0 -33 -40 -41 -50 -11 -9 28 2 43 28 39 16 -2 22 -10 22 -28z
m-4912 6 c9 -7 17 -20 17 -29 0 -9 18 -22 43 -31 24 -9 29 -13 12 -9 -29 6
-41 6 -100 1 -22 -2 -32 3 -42 22 -11 22 -10 27 8 43 25 20 38 21 62 3z m4435
-8 c24 -24 8 -73 -20 -63 -29 11 -32 75 -4 75 7 0 17 -5 24 -12z m326 -10 c11
-18 -7 -48 -30 -48 -18 0 -28 38 -13 56 14 17 28 14 43 -8z m-3164 -19 c0 -20
-15 -26 -24 -10 -8 13 4 42 15 35 5 -3 9 -14 9 -25z m250 21 c0 -5 -11 -10
-24 -10 -14 0 -28 -4 -31 -10 -7 -12 -35 -13 -35 -2 0 5 17 13 38 19 51 14 52
14 52 3z m1540 -15 c0 -9 -7 -18 -16 -22 -18 -7 -39 11 -30 26 11 17 46 13 46
-4z m-1235 -8 c15 -11 16 -21 10 -53 -5 -21 -7 -45 -6 -51 1 -7 -3 -13 -9 -13
-5 0 -10 5 -10 11 0 8 -5 7 -15 -1 -13 -11 -14 -10 -10 2 4 9 -4 22 -20 32
-20 13 -24 22 -19 44 11 43 43 55 79 29z m3062 -19 c-3 -8 -6 -5 -6 6 -1 11 2
17 5 13 3 -3 4 -12 1 -19z m-2827 -3 c-7 -8 -17 -15 -22 -15 -6 0 -5 7 2 15 7
8 17 15 22 15 6 0 5 -7 -2 -15z m-3035 -26 c0 -7 -8 -15 -17 -17 -18 -3 -25
18 -11 32 10 10 28 1 28 -15z m85 6 c0 -8 -9 -15 -20 -15 -11 0 -20 7 -20 15
0 8 9 15 20 15 11 0 20 -7 20 -15z m1405 3 c44 -20 29 -88 -20 -88 -44 0 -63
59 -27 86 21 16 16 16 47 2z m1160 -9 c58 2 24 -15 -48 -24 l-59 -8 18 22 c11
13 25 19 34 15 8 -4 33 -6 55 -5z m1308 -23 c-3 -38 -12 -45 -29 -22 -22 31
-18 58 9 54 17 -2 22 -9 20 -32z m-1713 8 c0 -8 -5 -12 -10 -9 -6 4 -8 11 -5
16 9 14 15 11 15 -7z m780 -46 c-1 -22 -26 -48 -46 -48 -23 1 -54 23 -54 39 0
6 -5 11 -11 11 -13 0 40 45 61 52 16 5 50 -32 50 -54z m-814 24 c0 -9 6 -17
14 -17 34 -2 61 -26 58 -52 -4 -35 -29 -50 -65 -37 -25 9 -28 15 -28 52 0 27
-6 46 -15 52 -13 9 -13 11 -1 19 19 12 39 3 37 -17z m79 -12 c-6 -9 -9 -9 -16
1 -10 17 0 34 13 21 6 -6 7 -16 3 -22z m-458 -1 c-14 -8 -22 -8 -30 0 -8 8 -3
11 19 11 25 -1 27 -2 11 -11z m3538 -17 c7 -20 -19 -47 -39 -39 -19 7 -21 53
-3 60 18 6 35 -2 42 -21z m-5421 3 c6 -18 -29 -41 -39 -25 -7 11 12 40 25 40
4 0 10 -7 14 -15z m4193 -17 c-3 -7 -5 -2 -5 12 0 14 2 19 5 13 2 -7 2 -19 0
-25z m443 -7 c0 -17 -17 -13 -24 5 -10 27 -7 36 9 20 8 -8 15 -19 15 -25z
m-2480 20 c0 -11 -59 -20 -66 -10 -2 4 8 10 23 12 16 2 31 5 36 6 4 0 7 -3 7
-8z m3006 -18 c-8 -8 -36 5 -36 17 0 7 6 7 21 0 11 -7 18 -14 15 -17z m-756 2
c0 -8 -4 -15 -10 -15 -5 0 -10 7 -10 15 0 8 5 15 10 15 6 0 10 -7 10 -15z
m-2840 -17 c0 -16 -3 -19 -11 -11 -6 6 -8 16 -5 22 11 17 16 13 16 -11z m2260
12 c0 -5 -2 -10 -4 -10 -3 0 -8 5 -11 10 -3 6 -1 10 4 10 6 0 11 -4 11 -10z
m747 -12 c-3 -8 -6 -5 -6 6 -1 11 2 17 5 13 3 -3 4 -12 1 -19z m618 12 c3 -5
1 -10 -4 -10 -6 0 -11 5 -11 10 0 6 2 10 4 10 3 0 8 -4 11 -10z m-3102 -24
c15 -22 14 -25 -4 -45 -23 -25 -52 -27 -73 -5 -20 19 -20 24 0 52 20 29 58 28
77 -2z m727 11 c0 -9 -23 -19 -57 -27 -32 -7 -67 -17 -78 -23 -12 -5 -7 2 10
17 20 17 42 25 67 26 20 0 40 5 43 10 9 14 15 12 15 -3z m2884 -9 c13 -22 -5
-44 -28 -35 -22 9 -22 60 0 55 9 -2 22 -11 28 -20z m-940 -4 c3 -8 2 -12 -4
-9 -6 3 -10 10 -10 16 0 14 7 11 14 -7z m-2606 -6 c-3 -7 -13 -15 -23 -16 -15
-4 -16 -2 -4 12 17 19 32 21 27 4z m2045 -48 c3 -30 2 -46 -2 -35 -4 11 -19
22 -32 25 -33 8 -34 46 -1 42 15 -2 22 2 22 14 0 34 7 8 13 -46z m-1273 36 c0
-2 -7 -7 -16 -10 -8 -3 -12 -2 -9 4 6 10 25 14 25 6z m-1416 -25 c26 -28 12
-71 -23 -71 -33 0 -47 9 -55 37 -5 16 -1 25 16 37 29 21 41 20 62 -3z m3277 2
c13 -16 12 -17 -3 -4 -17 13 -22 21 -14 21 2 0 10 -8 17 -17z m-3376 -3 c3 -6
-1 -7 -9 -4 -18 7 -21 14 -7 14 6 0 13 -4 16 -10z m3804 -20 c15 0 36 -6 47
-14 18 -14 18 -15 -11 -25 -16 -6 -38 -16 -47 -21 -27 -15 -46 -12 -53 10 -9
29 4 63 22 56 8 -3 27 -6 42 -6z m-2676 -17 c-7 -2 -19 -2 -25 0 -7 3 -2 5 12
5 14 0 19 -2 13 -5z m267 -14 c-7 -11 -14 -19 -16 -16 -7 7 7 37 17 37 6 0 5
-9 -1 -21z m1460 6 c0 -8 -4 -15 -10 -15 -5 0 -10 7 -10 15 0 8 5 15 10 15 6
0 10 -7 10 -15z m-1866 -20 c3 -9 0 -15 -9 -15 -8 0 -15 7 -15 15 0 8 4 15 9
15 5 0 11 -7 15 -15z m1803 -42 c-3 -10 -5 -4 -5 12 0 17 2 24 5 18 2 -7 2
-21 0 -30z m-1471 -5 c15 -7 28 -7 40 0 40 22 85 -43 52 -76 -29 -29 -93 4
-86 45 2 12 -4 19 -19 21 -25 4 -61 -17 -59 -33 0 -5 -10 -12 -24 -13 -14 -2
-31 -9 -38 -14 -9 -8 -11 -7 -6 6 3 9 26 25 51 36 31 14 43 24 40 34 -6 16 7
14 49 -6z m-1166 -18 c30 0 60 -22 60 -45 0 -24 -30 -44 -65 -43 -32 1 -33 3
-28 33 3 21 0 35 -11 44 -13 11 -14 16 -4 29 12 13 13 13 16 -1 2 -11 13 -17
32 -17z m2340 16 c0 -3 -4 -8 -10 -11 -5 -3 -10 -1 -10 4 0 6 5 11 10 11 6 0
10 -2 10 -4z m98 -31 c14 -29 -2 -34 -18 -6 -12 24 -13 31 -2 31 5 0 14 -11
20 -25z m577 1 c28 -42 -10 -79 -52 -53 -19 12 -16 54 5 66 25 15 30 14 47
-13z m1303 -10 c2 -15 -3 -35 -9 -42 -14 -17 -55 -19 -65 -3 -3 6 -22 9 -43 6
-20 -3 -28 -3 -18 -1 9 3 17 10 17 15 0 5 9 9 20 9 22 0 27 15 8 23 -7 3 -3 6
9 6 12 1 24 5 27 10 3 5 16 8 29 7 18 -1 24 -7 25 -30z m-480 -4 c13 -19 12
-22 -2 -28 -9 -3 -27 -3 -41 0 -24 6 -25 7 -9 32 19 28 31 27 52 -4z m-1428
-2 c0 -22 -25 -18 -34 6 -3 9 1 14 14 14 13 0 20 -7 20 -20z m810 -20 c39 -16
55 -37 55 -72 0 -20 -5 -28 -17 -28 -9 0 -20 -5 -23 -11 -5 -7 -13 -4 -26 7
-25 23 -32 49 -19 74 8 16 8 22 -3 26 -10 3 -13 13 -9 27 5 17 7 18 10 5 2 -9
16 -21 32 -28z m201 21 c11 -10 16 -22 11 -25 -5 -3 -13 -21 -16 -40 -5 -27
-1 -47 19 -86 14 -27 30 -50 36 -50 5 0 8 -4 4 -9 -3 -5 -1 -12 5 -16 5 -3 10
-10 10 -16 0 -5 -9 0 -20 11 -12 12 -25 18 -30 15 -5 -3 -7 1 -4 9 7 19 -27
84 -60 115 -24 22 -60 81 -54 86 5 4 63 23 71 24 4 1 17 -8 28 -18z m-2798 -2
c-13 -13 -103 -20 -103 -8 0 7 23 11 95 17 14 2 16 -1 8 -9z m1939 -24 c4 -18
0 -26 -14 -31 -23 -7 -49 13 -32 24 6 4 13 15 17 25 9 23 23 14 29 -18z m308
14 c0 -6 -4 -7 -10 -4 -5 3 -10 11 -10 16 0 6 5 7 10 4 6 -3 10 -11 10 -16z
m-4370 -9 c0 -13 -7 -20 -20 -20 -19 0 -27 20 -13 33 13 14 33 6 33 -13z
m2859 11 c17 -11 6 -31 -19 -31 -43 0 -67 24 -32 33 28 8 36 7 51 -2z m188
-27 c11 -17 10 -24 -3 -43 -13 -18 -23 -22 -48 -18 -17 2 -44 -2 -59 -10 -16
-8 -31 -12 -34 -9 -3 2 9 12 26 20 17 9 28 22 25 29 -2 7 5 25 16 40 23 29 53
26 77 -9z m1103 4 l0 -33 -14 25 c-13 26 -12 40 5 40 5 0 9 -15 9 -32z m947
16 c-3 -3 -12 -4 -19 -1 -8 3 -5 6 6 6 11 1 17 -2 13 -5z m-3877 -24 c0 -13
-7 -20 -20 -20 -19 0 -27 20 -13 33 13 14 33 6 33 -13z m2978 12 c7 -5 10 -16
6 -25 -7 -20 -36 -8 -40 17 -2 17 13 21 34 8z m-4041 -18 c8 -21 -13 -42 -28
-27 -13 13 -5 43 11 43 6 0 13 -7 17 -16z m2312 2 c9 -10 8 -15 -2 -19 -7 -3
-19 4 -25 14 -10 15 -9 19 2 19 7 0 19 -6 25 -14z m-1455 -27 c-3 -5 -14 -9
-25 -9 -21 0 -26 26 -6 33 15 5 39 -12 31 -24z m790 -2 c27 -26 -21 -85 -58
-71 -19 7 -29 38 -21 64 7 23 58 28 79 7z m466 -14 c14 -14 18 -23 10 -20 -8
4 -23 10 -32 13 -10 4 -18 13 -18 20 0 21 12 17 40 -13z m-1340 -3 c0 -13 -7
-20 -20 -20 -13 0 -20 7 -20 20 0 13 7 20 20 20 13 0 20 -7 20 -20z m4603 1
c2 -11 0 -24 -5 -29 -13 -13 -38 -4 -38 14 0 8 -6 14 -12 14 -19 0 14 20 33
20 9 0 19 -9 22 -19z m-4103 -16 c-7 -9 -15 -13 -17 -11 -7 7 7 26 19 26 6 0
6 -6 -2 -15z m911 -15 c23 -13 25 -48 5 -76 -14 -18 -17 -18 -43 -4 -33 18
-41 51 -18 74 19 19 29 20 56 6z m-1423 -22 c28 -28 1 -75 -37 -63 -27 8 -32
29 -15 54 17 24 34 27 52 9z m1219 -4 c8 -21 -13 -42 -28 -27 -13 13 -5 43 11
43 6 0 13 -7 17 -16z m2740 -38 c18 -13 55 -42 83 -66 27 -23 50 -38 50 -34 0
4 5 3 12 -4 7 -7 22 -12 35 -12 31 0 58 -42 44 -69 -15 -27 -14 -29 11 -33 12
-2 28 -14 35 -27 10 -21 9 -27 -5 -38 -28 -21 -51 -15 -58 15 -3 15 -7 33 -10
40 -4 14 -30 16 -39 2 -3 -5 -14 -10 -24 -10 -16 0 -28 18 -35 52 0 3 -4 9 -8
13 -4 4 -4 14 -1 22 8 20 -56 72 -89 73 -34 0 -56 34 -37 56 10 12 6 20 -22
45 -34 30 -34 30 -4 14 17 -9 44 -26 62 -39z m-2183 4 c-56 -24 -239 -90 -250
-89 -12 0 10 10 146 63 113 44 184 62 104 26z m581 6 c18 -13 18 -14 -3 -25
-16 -8 -27 -8 -47 1 -25 11 -25 13 -9 25 23 17 36 16 59 -1z m-3298 -40 c-4
-9 -13 -13 -22 -10 -18 7 -20 31 -2 37 17 6 31 -9 24 -27z m5294 -50 c-14 -16
-41 -11 -41 8 0 7 5 17 12 24 19 19 46 -11 29 -32z m-551 30 c0 -3 -4 -8 -10
-11 -5 -3 -10 -1 -10 4 0 6 5 11 10 11 6 0 10 -2 10 -4z m-4253 -22 c5 -15
-28 -27 -40 -15 -5 5 -6 14 -2 21 8 13 37 9 42 -6z m4181 -20 c2 -25 -1 -33
-18 -37 -30 -8 -64 24 -55 52 5 18 13 22 38 19 28 -3 32 -7 35 -34z m536 15
c-3 -5 -10 -7 -15 -3 -5 3 -7 10 -3 15 3 5 10 7 15 3 5 -3 7 -10 3 -15z
m-4324 -3 c0 -20 -19 -31 -32 -18 -6 6 -7 15 -4 21 10 16 36 13 36 -3z m1551
-6 c21 -12 25 -50 7 -68 -20 -20 -66 -15 -78 9 -9 16 -8 26 5 45 17 26 35 30
66 14z m-2103 -18 c5 -17 -27 -27 -41 -13 -9 9 -8 14 3 21 18 11 32 8 38 -8z
m3079 -14 c-3 -7 -5 -2 -5 12 0 14 2 19 5 13 2 -7 2 -19 0 -25z m783 -10 c0
-19 -15 -24 -24 -10 -3 5 -2 19 1 31 4 17 8 19 14 9 5 -7 9 -21 9 -30z m345
32 c-3 -5 -15 -10 -26 -10 -10 0 -19 5 -19 10 0 6 12 10 26 10 14 0 23 -4 19
-10z m-3942 -22 c8 -28 6 -29 -17 -13 -10 8 -15 18 -11 24 10 17 22 13 28 -11z
m3803 16 c16 -4 20 -11 16 -27 -11 -49 -52 -64 -72 -28 -13 25 -13 27 6 45 17
18 20 18 50 10z m-3188 -27 c4 -20 -25 -34 -40 -19 -15 15 -1 44 19 40 10 -2
19 -11 21 -21z m1052 2 c0 -25 -33 -22 -38 4 -2 12 3 17 17 17 15 0 21 -6 21
-21z m2500 -56 c19 -7 28 -12 20 -12 -9 -1 -16 -11 -17 -23 -1 -12 -11 -31
-23 -42 l-20 -20 -26 26 c-22 21 -25 31 -19 55 5 15 8 31 7 35 -1 4 5 5 13 2
11 -5 15 2 16 22 l1 29 7 -30 c5 -23 14 -33 41 -42z m-4601 44 c13 -16 5 -27
-21 -27 -11 0 -18 7 -18 20 0 23 22 27 39 7z m339 -18 c35 -31 38 -55 10 -72
-21 -14 -48 7 -48 37 0 12 -5 27 -11 33 -11 11 -5 33 9 33 4 0 22 -14 40 -31z
m2104 14 c10 -9 18 -22 18 -29 0 -7 24 -20 53 -29 52 -17 82 -35 59 -35 -6 0
-35 9 -63 19 -39 15 -55 17 -69 9 -45 -28 -98 26 -63 64 20 22 41 23 65 1z
m1468 -33 c12 -16 19 -30 16 -30 -2 0 -14 14 -26 30 -12 17 -19 30 -16 30 2 0
14 -13 26 -30z m120 -15 c0 -23 -2 -24 -21 -15 -16 9 -18 14 -8 26 17 21 29
17 29 -11z m-2843 4 c14 -14 6 -39 -12 -39 -15 0 -28 27 -19 41 7 12 18 11 31
-2z m2786 -21 c6 -22 5 -22 -8 -4 -17 22 -20 40 -6 32 5 -3 11 -16 14 -28z
m1162 22 c3 -5 -3 -10 -15 -10 -12 0 -18 5 -15 10 3 6 10 10 15 10 5 0 12 -4
15 -10z m-3255 -36 c0 -20 -30 -30 -40 -13 -11 17 7 40 26 32 8 -3 14 -12 14
-19z m-83 1 c1 -5 -2 -17 -7 -25 -8 -13 -11 -13 -26 2 -9 9 -13 21 -9 28 8 13
37 10 42 -5z m1506 -39 c-11 -54 -70 -63 -88 -12 -8 24 -6 31 14 47 20 17 25
17 51 4 22 -11 26 -19 23 -39z m1177 30 c0 -3 -4 -8 -10 -11 -5 -3 -10 -1 -10
4 0 6 5 11 10 11 6 0 10 -2 10 -4z m-2505 -41 c0 -28 -29 -25 -33 3 -3 19 0
23 15 20 10 -2 18 -12 18 -23z m1485 15 c0 -13 -20 -13 -40 0 -12 8 -9 10 13
10 15 0 27 -4 27 -10z m-3212 -17 c-2 -10 -10 -18 -18 -18 -8 0 -16 8 -18 18
-2 12 3 17 18 17 15 0 20 -5 18 -17z m522 -9 c0 -14 -21 -19 -33 -7 -9 9 13
34 24 27 5 -3 9 -12 9 -20z m3222 15 c2 -7 19 -17 38 -23 38 -12 51 -45 30
-72 -15 -17 -57 -18 -73 -1 -16 16 -18 50 -5 58 7 4 6 13 -1 28 -7 12 -8 21
-2 21 5 0 11 -5 13 -11z m-2857 -9 c3 -5 -1 -10 -9 -10 -9 0 -16 5 -16 10 0 6
4 10 9 10 6 0 13 -4 16 -10z m603 -22 c-4 -29 -38 -38 -38 -10 0 19 11 29 33
31 5 1 7 -9 5 -21z m-1136 1 c12 -6 36 -25 54 -41 28 -26 31 -34 23 -55 -12
-33 -13 -31 24 -47 20 -9 25 -15 14 -15 -10 -1 -34 10 -53 23 -33 22 -37 23
-66 9 -31 -16 -46 -12 -90 20 -21 17 -13 58 18 92 25 27 44 31 76 14z m4961
-39 c8 -31 -14 -53 -47 -44 -34 8 -43 28 -26 59 11 20 16 22 40 13 15 -5 30
-18 33 -28z m-1610 23 c-7 -2 -21 -2 -30 0 -10 3 -4 5 12 5 17 0 24 -2 18 -5z
m-2243 -27 c0 -3 -4 -8 -10 -11 -5 -3 -10 -1 -10 4 0 6 5 11 10 11 6 0 10 -2
10 -4z m3168 -15 c-4 -19 -22 -18 -26 2 -2 7 4 14 13 14 9 0 15 -7 13 -16z
m490 7 c18 -18 15 -55 -5 -60 -30 -7 -51 2 -57 25 -10 38 34 63 62 35z m-4574
-28 c-10 -4 -23 -5 -28 -2 -5 3 -1 9 10 12 10 4 23 5 28 2 5 -3 1 -9 -10 -12z
m3119 13 c-7 -2 -19 -2 -25 0 -7 3 -2 5 12 5 14 0 19 -2 13 -5z m-2933 -14 c0
-11 -50 -12 -67 -1 -7 5 4 8 27 9 22 1 40 -2 40 -8z m2275 -13 c30 -45 -20
-91 -64 -59 -27 19 -27 48 1 67 31 22 45 20 63 -8z m-2228 8 c-3 -3 -12 -4
-19 -1 -8 3 -5 6 6 6 11 1 17 -2 13 -5z m96 -1 c-7 -2 -19 -2 -25 0 -7 3 -2 5
12 5 14 0 19 -2 13 -5z m267 -7 c14 -2 -24 -4 -85 -4 -60 -1 -115 2 -122 6
-10 6 151 5 207 -2z m2133 -3 c-7 -2 -21 -2 -30 0 -10 3 -4 5 12 5 17 0 24 -2
18 -5z m2095 -5 c28 -28 -1 -73 -40 -63 -33 9 -41 27 -22 54 17 23 44 27 62 9z
m-4050 -5 c-15 -2 -42 -2 -60 0 -18 2 -6 4 27 4 33 0 48 -2 33 -4z m97 -3 c4
-6 -6 -10 -24 -10 -16 0 -33 5 -36 10 -4 6 6 10 24 10 16 0 33 -4 36 -10z
m247 -8 c6 -6 -43 -6 -187 -1 l-50 2 55 6 c63 7 172 2 182 -7z m2495 -18 c6
-19 -46 -33 -77 -21 l-30 11 32 17 c32 16 68 13 75 -7z m-2259 10 c-8 -7 -208
-7 -215 0 -4 3 45 6 107 6 62 0 111 -3 108 -6z m3333 -10 c19 -23 -1 -49 -37
-49 -23 0 -30 5 -32 24 -6 39 43 56 69 25z m-3173 -1 c-21 -2 -57 -2 -80 0
-24 2 -7 4 37 4 44 0 63 -2 43 -4z m2404 -27 c19 -28 -10 -70 -40 -59 -23 9
-32 23 -32 55 0 26 2 27 33 21 17 -3 35 -11 39 -17z m-4038 -14 c18 -36 11
-66 -18 -80 -16 -7 -27 -6 -39 3 -22 16 -22 61 1 74 9 6 13 11 7 11 -11 0 15
20 27 20 4 0 14 -13 22 -28z m1431 -7 c0 -28 -29 -25 -33 3 -3 19 0 23 15 20
10 -2 18 -12 18 -23z m-1300 -13 c-3 -3 -11 0 -18 7 -9 10 -8 11 6 5 10 -3 15
-9 12 -12z m3647 -20 c-2 -15 2 -22 13 -22 11 0 15 5 12 14 -7 18 48 30 74 16
21 -12 25 -50 7 -68 -18 -18 -53 -14 -73 8 -22 24 -30 20 -40 -22 -4 -18 -9
-27 -12 -20 -2 6 -11 12 -19 12 -8 0 -14 6 -14 13 0 8 -4 7 -10 -3 -8 -13 -10
-13 -10 2 0 9 -3 23 -6 31 -4 12 3 16 28 19 27 2 33 7 32 26 0 12 4 21 10 19
6 -2 10 -14 8 -25z m-3563 -8 c27 -14 37 -14 57 -4 29 16 54 0 54 -35 0 -13 6
-25 12 -27 7 -3 -3 -5 -22 -6 -39 -1 -50 4 -66 33 -6 11 -27 24 -47 29 -21 5
-37 13 -37 18 0 12 13 10 49 -8z m4071 1 c13 -16 6 -47 -16 -65 -12 -10 -18
-9 -34 5 -25 22 -26 51 -2 64 24 14 38 13 52 -4z m700 -36 c0 -11 -21 -11 -37
-1 -7 5 -10 17 -6 31 l6 24 19 -22 c10 -13 18 -27 18 -32z m-2990 31 c8 -5 11
-10 5 -10 -5 0 -17 5 -25 10 -8 5 -10 10 -5 10 6 0 17 -5 25 -10z m688 -12
c18 -20 19 -25 7 -42 -9 -11 -33 -22 -57 -26 l-44 -6 4 35 c2 20 5 42 7 49 7
20 60 14 83 -10z m-3108 -13 c0 -21 -19 -28 -36 -15 -10 9 -11 16 -3 26 12 15
39 8 39 -11z m620 -10 c0 -15 -19 -24 -37 -18 -9 4 -10 10 -3 24 11 20 40 16
40 -6z m932 -26 c-3 -38 -15 -55 -32 -44 -10 6 -6 56 7 78 11 19 28 -3 25 -34z
m938 26 c14 -8 21 -14 15 -14 -5 0 -21 6 -35 14 -14 8 -20 14 -15 14 6 0 21
-6 35 -14z m810 5 c0 -5 -4 -10 -9 -10 -6 0 -13 5 -16 10 -3 6 1 10 9 10 9 0
16 -4 16 -10z m183 3 c-7 -2 -19 -2 -25 0 -7 3 -2 5 12 5 14 0 19 -2 13 -5z
m240 -12 c-9 -34 -73 -32 -86 3 -5 13 2 16 42 16 43 0 49 -2 44 -19z m-3428
-30 c-3 -12 -10 -21 -15 -21 -5 0 -4 11 2 25 13 29 23 26 13 -4z m-255 15 c0
-2 -8 -10 -17 -17 -16 -13 -17 -12 -4 4 13 16 21 21 21 13z m1675 -22 c0 -10
-8 -20 -17 -22 -18 -3 -26 27 -11 42 12 11 28 0 28 -20z m671 0 c33 13 84 -30
84 -71 0 -9 8 -22 18 -29 16 -13 16 -14 0 -8 -10 3 -29 -3 -44 -15 -15 -12
-35 -21 -45 -21 -13 0 -22 -13 -33 -47 -13 -44 -12 -51 5 -79 11 -17 19 -41
19 -54 0 -12 10 -36 22 -53 l22 -32 -25 23 c-24 21 -27 21 -57 6 -30 -15 -35
-14 -70 4 -33 17 -37 22 -34 53 5 42 26 67 65 77 24 6 32 16 43 51 12 40 11
45 -12 79 -14 20 -35 40 -47 44 l-22 6 21 1 c26 1 58 46 50 68 -5 13 -4 14 9
3 8 -7 22 -10 31 -6z m-949 -10 c8 -20 -8 -36 -26 -25 -15 10 -8 41 9 41 6 0
13 -7 17 -16z m1148 -2 c-3 -3 -11 0 -18 7 -9 10 -8 11 6 5 10 -3 15 -9 12
-12z m2115 -14 c0 -16 -3 -19 -11 -11 -6 6 -8 16 -5 22 11 17 16 13 16 -11z
m-3462 -15 c5 -17 -26 -29 -40 -15 -6 6 -7 15 -3 22 9 14 37 9 43 -7z m1756 2
c-4 -9 -16 -21 -28 -27 -19 -10 -19 -9 3 16 28 30 33 32 25 11z m-2967 -15
c-1 -22 -12 -26 -23 -9 -3 6 0 15 7 20 18 12 18 12 16 -11z m1123 -4 c0 -21
28 -46 45 -40 8 4 15 1 15 -5 0 -6 -7 -11 -15 -11 -21 0 -19 -37 3 -49 14 -9
13 -10 -10 -11 -31 0 -38 -26 -16 -48 10 -10 10 -14 0 -21 -10 -6 -10 -14 -2
-35 5 -15 10 -33 9 -39 0 -7 -11 15 -23 48 -24 59 -42 78 -56 56 -9 -16 -70
44 -70 69 0 10 -10 26 -22 35 l-23 17 23 -7 c16 -5 30 -1 43 11 44 40 99 56
99 30z m-220 -6 c8 -5 11 -10 5 -10 -5 0 -17 5 -25 10 -8 5 -10 10 -5 10 6 0
17 -5 25 -10z m1815 -13 c40 -14 111 -62 75 -51 -14 5 -40 7 -58 6 -26 -2 -34
3 -42 22 -5 13 -17 30 -27 36 -20 13 -19 13 52 -13z m-1435 -9 c0 -5 51 -8
121 -7 66 1 123 -2 126 -5 4 -3 -34 -6 -84 -6 -68 0 -94 -4 -103 -15 -16 -19
-39 -19 -46 -1 -3 8 -12 12 -20 9 -8 -3 -26 -2 -40 1 l-26 7 22 19 c21 18 50
17 50 -2z m837 5 c-20 -2 -52 -2 -70 0 -17 2 0 4 38 4 39 0 53 -2 32 -4z
m-359 -10 c-21 -2 -57 -2 -80 0 -24 2 -7 4 37 4 44 0 63 -2 43 -4z m85 0 c-7
-2 -21 -2 -30 0 -10 3 -4 5 12 5 17 0 24 -2 18 -5z m707 -45 c10 -6 7 -7 -10
-2 -14 3 -32 11 -40 16 -10 6 -7 7 10 2 14 -3 32 -11 40 -16z m-1042 -16 c2
-14 -2 -22 -12 -22 -19 0 -29 17 -22 36 8 22 30 12 34 -14z m1370 -7 c20 -14
33 -25 29 -25 -15 0 -87 35 -87 42 0 14 21 8 58 -17z m-238 -5 c8 -5 11 -10 5
-10 -5 0 -17 5 -25 10 -8 5 -10 10 -5 10 6 0 17 -5 25 -10z m-1689 -19 c-8 -5
-20 -7 -28 -4 -21 8 -15 13 15 13 20 0 23 -3 13 -9z m292 2 c-7 -2 -19 -2 -25
0 -7 3 -2 5 12 5 14 0 19 -2 13 -5z m-883 -23 c12 -12 18 -25 15 -30 -3 -4 1
-10 7 -13 7 -2 -5 -12 -26 -21 -22 -9 -46 -14 -53 -12 -7 3 -13 -2 -13 -11 0
-9 -7 -25 -17 -35 -11 -12 -12 -18 -4 -18 7 0 11 -6 8 -12 -2 -7 0 -21 4 -30
6 -10 5 -19 -1 -23 -5 -3 -10 -2 -10 3 0 6 -9 8 -20 5 -10 -3 -26 2 -35 11
-15 15 -15 16 1 16 14 0 13 3 -6 20 -13 11 -34 23 -47 26 -18 5 -23 13 -23 38
0 65 65 110 110 76 24 -18 25 -18 47 6 27 29 37 30 63 4z m507 14 c-3 -3 -12
-4 -19 -1 -8 3 -5 6 6 6 11 1 17 -2 13 -5z m1127 -3 c9 -15 -23 -36 -36 -23
-5 5 -7 15 -4 21 9 13 33 14 40 2z m767 -12 c74 -24 103 -38 79 -39 -17 0 -66
18 -120 42 -49 23 -34 22 41 -3z m229 -9 c30 -16 51 -29 45 -29 -5 0 -35 13
-65 29 -30 16 -50 29 -45 29 6 0 35 -13 65 -29z m-1653 14 c-3 -3 -12 -4 -19
-1 -8 3 -5 6 6 6 11 1 17 -2 13 -5z m3156 -7 c4 3 7 -5 7 -19 0 -32 -25 -56
-34 -32 -3 8 -6 27 -6 41 0 20 3 23 13 14 8 -6 17 -8 20 -4z m-3765 -4 c-10
-2 -28 -2 -40 0 -13 2 -5 4 17 4 22 1 32 -1 23 -4z m675 0 c-7 -2 -19 -2 -25
0 -7 3 -2 5 12 5 14 0 19 -2 13 -5z m424 -14 c14 -14 6 -39 -12 -39 -18 0 -28
17 -21 35 6 18 18 19 33 4z m-1244 -6 c-7 -2 -21 -2 -30 0 -10 3 -4 5 12 5 17
0 24 -2 18 -5z m940 0 c-7 -2 -21 -2 -30 0 -10 3 -4 5 12 5 17 0 24 -2 18 -5z
m152 -21 c97 -19 103 -21 51 -19 -31 1 -51 -3 -54 -11 -6 -19 -39 -14 -45 8
-4 14 -17 21 -48 27 -38 6 -41 8 -19 13 14 4 32 4 40 0 8 -4 42 -12 75 -18z
m1795 19 c0 -15 -19 -23 -38 -16 -14 5 -14 7 -2 15 19 12 40 13 40 1z m-2972
-8 c-10 -2 -26 -2 -35 0 -10 3 -2 5 17 5 19 0 27 -2 18 -5z m4167 -56 c6 0 15
-5 22 -12 9 -10 9 -17 -2 -31 -14 -18 -14 -18 -15 6 l-2 25 -10 -27 c-22 -62
-38 -7 -21 73 l7 34 6 -35 c3 -19 10 -34 15 -33z m-3481 11 c9 -17 16 -34 16
-37 0 -9 -40 53 -40 62 0 15 9 6 24 -25z m-1510 16 c9 -3 16 -11 16 -18 0 -6
6 -23 14 -38 10 -18 11 -28 4 -30 -17 -6 0 -28 77 -97 100 -91 250 -234 258
-248 5 -7 0 -9 -13 -6 -16 4 -20 0 -20 -21 0 -22 -4 -26 -30 -26 -50 0 -66 64
-21 86 16 8 4 22 -88 105 -162 147 -165 149 -223 158 -81 13 -109 61 -67 115
20 26 57 34 93 20z m3266 -4 c8 -5 11 -10 5 -10 -5 0 -17 5 -25 10 -8 5 -10
10 -5 10 6 0 17 -5 25 -10z m175 0 c3 -6 -1 -7 -9 -4 -18 7 -21 14 -7 14 6 0
13 -4 16 -10z m-1198 -20 c17 0 35 -5 39 -11 5 -8 0 -10 -17 -6 -13 3 -45 9
-71 12 -27 4 -48 11 -48 15 0 5 15 4 32 -1 18 -5 47 -9 65 -9z m1083 0 c18
-12 2 -12 -25 0 -13 6 -15 9 -5 9 8 0 22 -4 30 -9z m175 -10 c3 -6 -1 -7 -9
-4 -18 7 -21 14 -7 14 6 0 13 -4 16 -10z m-3345 -14 c14 -8 40 -12 60 -9 l35
4 -45 -21 c-25 -12 -49 -28 -53 -36 -12 -22 -47 -17 -72 10 l-22 24 25 21 c31
24 38 25 72 7z m225 4 c14 -6 2 -8 -40 -8 -52 1 -55 2 -25 8 46 10 42 10 65 0z
m4745 1 c0 -5 -7 -12 -16 -15 -14 -5 -15 -4 -4 9 14 17 20 19 20 6z m-2773 -7
c-3 -3 -12 -4 -19 -1 -8 3 -5 6 6 6 11 1 17 -2 13 -5z m1083 -14 c8 -5 11 -10
5 -10 -5 0 -17 5 -25 10 -8 5 -10 10 -5 10 6 0 17 -5 25 -10z m256 -68 c-5 -4
-146 66 -146 73 0 3 34 -12 75 -32 41 -20 73 -39 71 -41z m-1229 62 c-3 -3
-12 -4 -19 -1 -8 3 -5 6 6 6 11 1 17 -2 13 -5z m2631 -32 c-6 -53 -68 -56 -68
-3 0 31 17 41 53 33 13 -3 17 -12 15 -30z m-3524 -7 c9 -14 13 -25 8 -25 -5 0
-14 11 -20 25 -6 14 -10 25 -8 25 2 0 11 -11 20 -25z m1996 -3 c3 -3 -8 -2
-25 2 -16 4 -34 12 -40 17 -5 5 6 4 25 -2 19 -7 37 -14 40 -17z m-2046 -52 l7
-25 -15 25 c-9 14 -15 32 -15 40 0 13 1 13 8 0 5 -8 12 -26 15 -40z m726 35
c0 -21 -30 -31 -40 -14 -11 17 -3 29 21 29 10 0 19 -7 19 -15z m1360 5 c8 -5
11 -10 5 -10 -5 0 -17 5 -25 10 -8 5 -10 10 -5 10 6 0 17 -5 25 -10z m-2179
-30 c18 0 9 -32 -11 -37 -12 -3 -21 -14 -21 -27 -1 -15 -3 -12 -8 9 -4 17 -5
42 -3 57 4 24 6 25 19 13 8 -8 19 -15 24 -15z m2710 19 c24 -12 16 -29 -15
-29 -29 0 -39 10 -25 27 14 16 15 16 40 2z m-3605 -67 c-4 -3 -12 0 -19 7 -9
11 -9 14 1 18 6 3 13 12 13 21 1 10 4 4 6 -11 3 -16 2 -31 -1 -35z m1075 36
c11 -21 11 -22 -4 -9 -10 7 -17 17 -17 22 0 15 9 10 21 -13z m2213 -18 c62
-28 68 -29 89 -15 12 8 33 15 47 15 31 0 70 -33 70 -60 0 -10 8 -24 18 -29 16
-10 16 -10 0 -11 -10 0 -27 -9 -38 -20 -26 -26 -74 -26 -101 1 -13 13 -28 19
-41 16 -20 -6 -20 -5 1 14 11 11 21 24 21 28 0 5 -41 24 -90 42 -65 24 -85 36
-73 41 27 10 25 10 97 -22z m-3786 -5 c-3 -3 -9 2 -12 12 -6 14 -5 15 5 6 7
-7 10 -15 7 -18z m4967 -17 c14 -42 -45 -64 -69 -26 -8 13 -6 22 7 36 21 23
54 18 62 -10z m-135 7 c20 -24 3 -57 -28 -53 -27 3 -39 26 -28 54 7 18 40 18
56 -1z m-3320 -30 c0 -5 -5 -3 -10 5 -5 8 -10 20 -10 25 0 6 5 3 10 -5 5 -8
10 -19 10 -25z m195 15 c0 -8 -8 -16 -17 -18 -13 -2 -18 3 -18 18 0 15 5 20
18 18 9 -2 17 -10 17 -18z m1079 -33 l29 -42 -33 30 c-37 35 -58 68 -38 59 7
-3 26 -24 42 -47z m398 21 c-6 -6 -23 -7 -39 -3 -27 6 -27 7 -9 20 22 17 66 1
48 -17z m-3267 2 c3 -5 -1 -10 -10 -10 -9 0 -13 5 -10 10 3 6 8 10 10 10 2 0
7 -4 10 -10z m1716 -33 c12 -22 12 -22 -10 -3 -11 11 -21 23 -21 28 0 14 19
-1 31 -25z m984 -75 c33 -15 33 -52 0 -80 l-24 -21 -21 26 c-24 31 -24 34 -5
59 8 10 15 42 16 69 l3 50 3 -46 c3 -37 9 -48 28 -57z m-697 71 c-5 -25 -28
-28 -28 -4 0 12 6 21 16 21 9 0 14 -7 12 -17z m-561 -50 c-3 -10 -5 -2 -5 17
0 19 2 27 5 18 2 -10 2 -26 0 -35z m2856 28 c33 -13 53 -62 36 -92 -22 -41
-38 -52 -67 -44 -61 17 -111 7 -301 -58 -107 -37 -197 -65 -199 -62 -3 3 1 5
9 5 11 0 11 2 1 9 -14 9 -17 8 258 89 l165 49 -3 34 c-2 19 -9 37 -15 41 -8 5
-6 8 4 8 9 0 30 7 45 15 34 18 36 18 67 6z m-2959 -17 c8 -21 1 -28 -18 -21
-9 4 -13 13 -10 22 8 20 20 19 28 -1z m-1499 -4 c3 -5 1 -10 -4 -10 -6 0 -11
5 -11 10 0 6 2 10 4 10 3 0 8 -4 11 -10z m712 -47 c-3 -10 -5 -4 -5 12 0 17 2
24 5 18 2 -7 2 -21 0 -30z m659 28 c-4 -5 0 -12 6 -14 9 -4 10 -8 2 -14 -6 -4
-16 -18 -23 -30 -24 -46 -90 -19 -77 31 5 20 14 26 44 29 20 2 41 4 45 5 5 1
6 -2 3 -7z m1734 -23 l23 -33 -26 24 c-15 14 -27 28 -27 33 0 14 5 9 30 -24z
m1598 13 c21 -13 11 -55 -14 -59 -27 -4 -47 21 -39 48 7 21 30 26 53 11z
m-3250 -44 c2 -12 -3 -17 -17 -17 -12 0 -21 6 -21 13 0 31 32 34 38 4z m142
-3 c6 -14 10 -43 10 -65 0 -37 -2 -39 -20 -29 -24 13 -26 33 -5 50 14 12 14
15 0 30 -17 19 -20 40 -5 40 6 0 15 -12 20 -26z m848 -31 c-2 -10 -10 -18 -18
-18 -8 0 -16 8 -18 18 -2 12 3 17 18 17 15 0 20 -5 18 -17z m-528 -48 c0 -8
-7 -15 -15 -15 -16 0 -20 12 -8 23 11 12 23 8 23 -8z m930 -52 c0 -48 -3 -64
-10 -53 -13 20 -13 120 0 120 6 0 10 -29 10 -67z m-1582 36 c-2 -6 -8 -10 -13
-10 -5 0 -11 4 -13 10 -2 6 4 11 13 11 9 0 15 -5 13 -11z m882 -33 c0 -19 -28
-28 -51 -15 -26 14 -15 29 22 29 18 0 29 -5 29 -14z m-392 -13 c-2 -10 -10
-18 -18 -18 -8 0 -16 8 -18 18 -2 12 3 17 18 17 15 0 20 -5 18 -17z m302 -4
c0 -6 -4 -7 -10 -4 -5 3 -10 11 -10 16 0 6 5 7 10 4 6 -3 10 -11 10 -16z m530
-18 c0 -23 -9 -31 -26 -24 -14 5 -19 34 -8 46 11 10 34 -5 34 -22z"/>
<path d="M5935 3260 c3 -5 8 -10 11 -10 2 0 4 5 4 10 0 6 -5 10 -11 10 -5 0
-7 -4 -4 -10z"/>
<path d="M4645 3547 c0 -85 32 -147 76 -147 43 0 65 -15 78 -51 11 -32 16 -33
84 -7 19 7 24 14 18 22 -12 15 -4 55 16 78 12 13 13 33 8 92 l-7 76 -137 0
-136 0 0 -63z"/>
<path d="M4517 3455 c-9 -20 -17 -44 -17 -54 0 -10 -7 -25 -16 -32 -16 -13
-194 -368 -194 -387 0 -6 21 -17 47 -26 36 -13 49 -13 61 -4 8 7 70 81 138
166 113 141 122 156 113 179 -6 17 -6 36 0 54 13 37 -9 70 -33 50 -13 -11 -19
-11 -31 -1 -20 16 -19 56 1 64 23 9 7 26 -25 26 -21 0 -31 -8 -44 -35z"/>
<path d="M4667 3244 c-9 -10 3 -56 19 -75 19 -22 17 -42 -6 -67 -35 -38 -98
-18 -83 26 3 6 0 12 -6 12 -11 0 -171 -186 -171 -200 0 -4 15 -14 33 -21 17
-6 46 -18 62 -24 64 -26 202 -77 245 -90 25 -7 67 -21 93 -31 l49 -17 30 30
29 30 -54 104 c-142 275 -177 329 -212 329 -12 0 -25 -3 -28 -6z"/>
<path d="M4251 2913 c-37 -75 -36 -79 13 -75 37 3 49 10 75 43 l31 38 -29 16
c-48 24 -68 19 -90 -22z"/>
<path d="M4398 2883 c-57 -6 -89 -50 -84 -113 2 -27 11 -61 20 -75 32 -49 49
-50 232 -15 93 17 197 36 232 42 34 6 62 14 62 18 0 13 -388 152 -413 148 -7
-1 -29 -3 -49 -5z"/>
<path d="M4201 2794 c0 -11 3 -14 6 -6 3 7 2 16 -1 19 -3 4 -6 -2 -5 -13z"/>
<path d="M4182 2758 c-18 -24 -43 -79 -40 -90 2 -5 23 11 46 36 41 44 47 66
18 66 -8 0 -18 -6 -24 -12z"/>
<path d="M4268 2700 c3 -25 0 -40 -7 -40 -6 0 -12 6 -13 13 0 6 -2 17 -3 22
-2 6 -3 17 -4 25 -1 9 -14 0 -35 -25 -32 -37 -33 -41 -19 -57 20 -22 62 -23
70 -2 5 13 7 13 14 2 6 -10 13 -10 26 -2 28 17 27 39 -4 73 l-28 31 3 -40z"/>
<path d="M4880 2714 c-8 -2 -98 -17 -200 -34 -102 -18 -194 -36 -205 -41 -11
-4 -31 -9 -44 -11 -20 -3 -24 -9 -26 -42 -2 -30 8 -58 37 -113 39 -71 51 -83
63 -63 5 8 -45 89 -83 133 -8 9 -13 20 -10 23 3 3 23 -21 44 -53 65 -100 57
-97 122 -55 32 20 73 49 92 63 19 14 79 56 132 94 91 65 117 89 100 98 -4 2
-14 2 -22 1z"/>
<path d="M4279 2608 c0 -2 -2 -11 -4 -21 -5 -28 -15 -33 -15 -8 0 17 -5 22
-22 19 -13 -2 -24 -11 -26 -23 -6 -29 -30 -53 -63 -60 -24 -5 -29 -12 -34 -48
-39 -278 -42 -309 -28 -323 18 -18 32 -11 136 67 43 33 80 59 83 59 2 0 42 27
88 60 l85 60 -32 54 c-18 30 -40 68 -49 85 -12 22 -24 31 -42 31 -14 0 -31 8
-38 18 -12 17 -37 37 -39 30z m8 -230 c-3 -7 -5 -2 -5 12 0 14 2 19 5 13 2 -7
2 -19 0 -25z"/>
<path d="M4041 2511 c-12 -16 -21 -31 -21 -34 0 -2 -17 -22 -37 -44 -78 -80
-114 -136 -109 -163 3 -14 3 -19 0 -12 -3 6 -10 12 -15 12 -16 0 -90 -103 -84
-118 6 -17 -21 -52 -40 -52 -16 0 -25 -59 -13 -85 9 -19 8 -19 -6 -2 -31 39
-48 18 -93 -118 -44 -135 -49 -160 -34 -184 7 -11 30 3 103 64 51 43 103 89
116 102 13 13 26 23 30 23 4 0 25 17 47 37 22 19 50 42 63 50 26 18 28 38 6
82 -9 18 -13 35 -10 39 4 3 9 -4 13 -16 5 -21 6 -20 22 10 9 17 29 39 46 48
29 16 30 19 52 171 27 191 27 196 4 209 -16 8 -23 5 -40 -19z"/>
<path d="M6056 2324 c-21 -20 -20 -21 6 -19 24 2 35 19 19 29 -5 3 -17 -1 -25
-10z"/>
<path d="M6103 2324 c-7 -18 3 -29 35 -39 17 -5 22 -2 22 12 0 37 -45 59 -57
27z"/>
<path d="M3549 1898 c-45 -57 -85 -105 -88 -108 -3 -3 -22 -25 -41 -50 -19
-25 -38 -46 -42 -48 -4 -2 -8 -8 -8 -14 0 -6 -17 -30 -37 -53 -39 -44 -45 -51
-205 -249 -140 -172 -134 -178 32 -41 177 147 174 144 154 166 -9 11 -12 19
-6 19 6 0 14 -4 17 -10 3 -5 11 -10 16 -10 6 0 7 5 4 10 -3 6 2 10 13 10 19 0
66 32 136 93 l39 34 -21 21 c-12 12 -27 22 -32 22 -12 0 37 49 64 65 16 9 101
233 92 242 -2 3 -41 -42 -87 -99z"/>
</g>
</svg>
